<?xml version="1.0" encoding="UTF-8" standalone="no"?>
<!-- Created with Inkscape (http://www.inkscape.org/) -->

<svg
   width="128"
   height="128"
   viewBox="0 0 33.866666 33.866666"
   version="1.1"
   id="svg1"
   xml:space="preserve"
   inkscape:version="1.4.4 (dcaf3e7d9e, 2026-05-05)"
   sodipodi:docname="icon.svg"
   inkscape:export-filename="icon_about.png"
   inkscape:export-xdpi="48"
   inkscape:export-ydpi="48"
   xmlns:inkscape="http://www.inkscape.org/namespaces/inkscape"
   xmlns:sodipodi="http://sodipodi.sourceforge.net/DTD/sodipodi-0.dtd"
   xmlns="http://www.w3.org/2000/svg"
   xmlns:svg="http://www.w3.org/2000/svg"><sodipodi:namedview
     id="namedview1"
     pagecolor="#ffffff"
     bordercolor="#000000"
     borderopacity="0.25"
     inkscape:showpageshadow="2"
     inkscape:pageopacity="0.0"
     inkscape:pagecheckerboard="true"
     inkscape:deskcolor="#d1d1d1"
     inkscape:document-units="px"
     showgrid="true"
     inkscape:zoom="1"
     inkscape:cx="-211.5"
     inkscape:cy="-165.5"
     inkscape:window-width="1920"
     inkscape:window-height="1018"
     inkscape:window-x="0"
     inkscape:window-y="0"
     inkscape:window-maximized="1"
     inkscape:current-layer="layer1"><inkscape:grid
       id="grid1"
       units="px"
       originx="0"
       originy="0"
       spacingx="0.26458333"
       spacingy="0.26458333"
       empcolor="#0099e5"
       empopacity="0.30196078"
       color="#0099e5"
       opacity="0.14901961"
       empspacing="4"
       enabled="true"
       visible="true"
       dotted="false"
       snapvisiblegridlinesonly="true" /></sodipodi:namedview><defs
     id="defs1"><inkscape:path-effect
       effect="mirror_symmetry"
       start_point="4.1632118,-0.0050987802"
       end_point="4.1632118,8.9557963"
       center_point="4.1632118,4.4753487"
       id="path-effect8"
       is_visible="true"
       lpeversion="1.2"
       lpesatellites=""
       mode="vertical"
       discard_orig_path="false"
       fuse_paths="true"
       oposite_fuse="false"
       split_items="false"
       split_open="false"
       link_styles="false" /><inkscape:path-effect
       effect="mirror_symmetry"
       start_point="4.1695703,-0.0061664806"
       end_point="4.1695703,8.784842"
       center_point="4.1695703,4.3893378"
       id="path-effect6"
       is_visible="true"
       lpeversion="1.2"
       lpesatellites=""
       mode="vertical"
       discard_orig_path="false"
       fuse_paths="true"
       oposite_fuse="false"
       split_items="false"
       split_open="false"
       link_styles="false" /><inkscape:path-effect
       effect="mirror_symmetry"
       start_point="4.2333333,0"
       end_point="4.2333333,8.4666666"
       center_point="4.2333333,4.2333333"
       id="path-effect4"
       is_visible="true"
       lpeversion="1.2"
       lpesatellites=""
       mode="vertical"
       discard_orig_path="false"
       fuse_paths="true"
       oposite_fuse="false"
       split_items="false"
       split_open="false"
       link_styles="false" /><inkscape:path-effect
       effect="mirror_symmetry"
       start_point="4.1632118,-0.0050987802"
       end_point="4.1632118,8.9557963"
       center_point="4.1632118,4.4753487"
       id="path-effect2"
       is_visible="true"
       lpeversion="1.2"
       lpesatellites=""
       mode="vertical"
       discard_orig_path="false"
       fuse_paths="true"
       oposite_fuse="false"
       split_items="false"
       split_open="false"
       link_styles="false" /></defs><g
     inkscape:label="Layer 1"
     inkscape:groupmode="layer"
     id="layer1"><path
       style="display:inline;fill:#ffffff;fill-opacity:1;stroke:#000000;stroke-width:0.529167;stroke-dasharray:none;stroke-opacity:1;paint-order:stroke fill markers"
       d="m 2.2285156,0.26367188 c -1.43433612,0 -2.08398435,1.19201642 -2.08398435,2.38281252 0.11961796,2.3788651 1.90564305,4.5010227 4.01953125,5.8242187 2.1138882,-1.323196 3.8979602,-3.4453536 4.0175781,-5.8242187 0,-1.1907961 -0.6496482,-2.38281252 -2.0839844,-2.38281252 -0.9430748,0 -1.4131283,0.41541225 -1.9335937,1.22265622 C 3.6435971,0.67908413 3.1715904,0.26367187 2.2285156,0.26367188 Z"
       id="path1"
       sodipodi:nodetypes="ccccc"
       transform="matrix(3.9558722,0,0,3.7793843,0.46419909,0.01927025)"
       inkscape:original-d="M 4.1695701,1.4965095 C 3.6465779,0.68277198 3.1749998,0.26458332 2.2280861,0.26458332 c -1.43433614,0 -2.08324066,1.19045378 -2.08324066,2.38124988 0.11973788,2.3812499 1.90805846,4.5061446 4.02472486,5.8290613 z"
       inkscape:path-effect="#path-effect2" /><path
       id="path6"
       style="display:inline;fill:#000000;fill-opacity:1;stroke:#000000;stroke-width:2.04609;stroke-dasharray:none;stroke-opacity:1;paint-order:stroke fill markers"
       d="M 9.1171875,3.0898438 C 6.9309232,3.0700006 4.7940877,4.3843255 3.9433754,6.4203783 2.8133513,8.6696395 3.0422326,11.316658 3.8086817,13.640507 c 1.6533089,5.751405 5.8125779,10.512774 10.4667093,14.027462 0.816533,0.614147 1.758483,1.27964 2.664062,1.857422 C 22.239431,26.089907 27.061164,21.450836 29.435547,15.490234 30.361275,13.078696 30.863018,10.589 30.533882,8.0080929 29.968977,5.1191999 27.122999,2.7095015 24.117961,3.1112417 22.422083,3.1547747 20.847923,4.0298087 19.801353,5.3439505 18.67049,6.6412766 17.833684,8.1482907 16.855469,9.5566406 15.518982,7.1740614 14.088671,4.4489641 11.380033,3.42064 10.659997,3.1469322 9.8845857,3.046755 9.1171875,3.0898438 Z" /><path
       style="fill:#000000;fill-opacity:1;stroke:#ffffff;stroke-width:2.35946;stroke-dasharray:none;stroke-opacity:1;paint-order:stroke fill markers"
       d="m 16.843884,19.272031 c -1.147785,-1.212566 -1.147785,-1.212566 -3.443347,-1.212571 -2.295567,5e-6 -3.4433473,1.212571 -3.4433473,3.069314 0,1.78096 1.1477803,2.993526 3.4433473,2.993526 3.410534,0.04445 4.591129,-0.95995 4.591129,-2.955634 v -6.744909 l 1.147781,1.212571 h 3.443347 L 24.878361,8.3589213 23.73058,10.784058 c -1.530378,2.425133 -3.060756,3.233512 -4.591133,2.425133 l -2.295563,-2.425133 z"
       id="path4"
       sodipodi:nodetypes="ccccccccccccc" /></g></svg>
